<?xml version="1.0" encoding="UTF-8"?>
<svg id="Layer_2" data-name="Layer 2" xmlns="http://www.w3.org/2000/svg" viewBox="0 0 134.81 216.48">
  <g id="Layer_1-2" data-name="Layer 1">
    <path d="M66.55,0h0S0,0,0,0v216.47l33.47-32,33.08,32v-108.24h.2v-23.88h25.55c5.14,0,9.36.63,12.67,1.87,3.3,1.25,5.95,2.9,7.93,4.96,1.98,2.06,3.38,4.48,4.19,7.27.8,2.79,1.21,5.73,1.21,8.81h2.2v-52.42h-2.2c0,3.08-.41,5.98-1.21,8.7-.81,2.72-2.2,5.14-4.19,7.27-1.98,2.13-4.63,3.82-7.93,5.07-3.3,1.25-7.53,1.87-12.67,1.87h-25.55V6.61h29.74c6.31,0,11.57.85,15.75,2.53,4.19,1.69,7.6,4.07,10.24,7.16,2.64,3.08,4.74,6.72,6.28,10.9,1.54,4.19,2.83,8.78,3.86,13.77h2.2l-1.1-40.97h-67.16Z"/>
  </g>
</svg>