<?xml version="1.0" encoding="UTF-8"?>
<svg id="Layer_1" data-name="Layer 1" xmlns="http://www.w3.org/2000/svg" xmlns:xlink="http://www.w3.org/1999/xlink" viewBox="0 0 1512.83 1352.47">
  <defs>
    <style>
      .cls-1 {
        fill: url(#linear-gradient-8);
      }

      .cls-2 {
        fill: url(#linear-gradient-7);
      }

      .cls-3 {
        fill: url(#linear-gradient-5);
      }

      .cls-4 {
        fill: url(#linear-gradient-6);
      }

      .cls-5 {
        fill: url(#linear-gradient-9);
      }

      .cls-6 {
        fill: url(#linear-gradient-4);
      }

      .cls-7 {
        fill: url(#linear-gradient-3);
      }

      .cls-8 {
        fill: url(#linear-gradient-2);
      }

      .cls-9 {
        fill: url(#linear-gradient);
      }

      .cls-10 {
        fill: #fff;
      }

      .cls-11 {
        fill: url(#linear-gradient-10);
      }

      .cls-12 {
        fill: url(#linear-gradient-11);
      }

      .cls-13 {
        fill: url(#linear-gradient-12);
      }

      .cls-14 {
        fill: url(#linear-gradient-13);
      }

      .cls-15 {
        fill: url(#linear-gradient-14);
      }

      .cls-16 {
        fill: url(#linear-gradient-15);
      }

      .cls-17 {
        fill: #f9f4ef;
      }
    </style>
    <linearGradient id="linear-gradient" x1="1215.19" y1="591.72" x2="1215.19" y2="808.2" gradientUnits="userSpaceOnUse">
      <stop offset=".21" stop-color="#ff4412"/>
      <stop offset=".36" stop-color="#ff5017"/>
      <stop offset=".86" stop-color="#fb7b26"/>
    </linearGradient>
    <linearGradient id="linear-gradient-2" x1="684.57" x2="684.57" xlink:href="#linear-gradient"/>
    <linearGradient id="linear-gradient-3" x1="1145.54" y1="234.68" x2="1145.54" y2="319.69" gradientUnits="userSpaceOnUse">
      <stop offset=".21" stop-color="#ff4412"/>
      <stop offset=".56" stop-color="#ff5017"/>
      <stop offset=".86" stop-color="#fb7b26"/>
    </linearGradient>
    <linearGradient id="linear-gradient-4" x1="1190.9" y1="233.56" x2="1190.9" y2="321.52" xlink:href="#linear-gradient-3"/>
    <linearGradient id="linear-gradient-5" x1="1248.6" y1="233.54" x2="1248.6" y2="321.25" xlink:href="#linear-gradient-3"/>
    <linearGradient id="linear-gradient-6" x1="1306.05" y1="232.72" x2="1306.05" y2="320.22" xlink:href="#linear-gradient-3"/>
    <linearGradient id="linear-gradient-7" x1="1352.08" y1="231.35" x2="1352.08" y2="322.1" xlink:href="#linear-gradient-3"/>
    <linearGradient id="linear-gradient-8" x1="1096.35" y1="234.89" x2="1096.35" y2="318.53" xlink:href="#linear-gradient-3"/>
    <linearGradient id="linear-gradient-9" x1="684.57" x2="684.57" xlink:href="#linear-gradient-3"/>
    <linearGradient id="linear-gradient-10" x1="729.93" y1="233.56" x2="729.93" y2="321.52" xlink:href="#linear-gradient-3"/>
    <linearGradient id="linear-gradient-11" x1="787.63" y1="233.54" x2="787.63" y2="321.25" xlink:href="#linear-gradient-3"/>
    <linearGradient id="linear-gradient-12" x1="845.08" y1="232.72" x2="845.08" y2="320.22" xlink:href="#linear-gradient-3"/>
    <linearGradient id="linear-gradient-13" x1="891.11" y1="231.35" x2="891.11" y2="322.1" xlink:href="#linear-gradient-3"/>
    <linearGradient id="linear-gradient-14" x1="635.38" y1="234.89" x2="635.38" y2="318.53" xlink:href="#linear-gradient-3"/>
    <linearGradient id="linear-gradient-15" x1="1217.38" y1="931.29" x2="1217.38" y2="1299.79" xlink:href="#linear-gradient-3"/>
  </defs>
  <rect class="cls-17" x="1030.94" y="515.71" width="368.5" height="368.5" rx="53.72" ry="53.72"/>
  <path class="cls-9" d="M1224.34,591.72h0s-86.55,0-86.55,0v216.47l43.47-32,43.08,32v-108.24l.2,4v-23.88h25.55c5.14,0,9.36.63,12.67,1.87,3.3,1.25,5.95,2.9,7.93,4.96,1.98,2.06,3.38,4.48,4.19,7.27.8,2.79,1.21,5.73,1.21,8.81h2.2v-56.42h-2.2c0,3.08-.41,5.98-1.21,8.7-.81,2.72-2.2,5.14-4.19,7.27-1.98,2.13-4.63,3.82-7.93,5.07-3.3,1.25-7.53,1.87-12.67,1.87h-25.55v-67.15h29.74c6.31,0,11.57.85,15.75,2.53,4.19,1.69,7.6,4.07,10.24,7.16,2.64,3.08,4.74,6.72,6.28,10.9,1.54,4.19,2.83,8.78,3.86,13.77h2.2l-1.1-44.97h-67.16Z"/>
  <path class="cls-8" d="M693.72,591.72h0s-86.55,0-86.55,0v216.47l43.47-32,43.08,32v-108.24l.2,4v-23.88h25.55c5.14,0,9.36.63,12.67,1.87,3.3,1.25,5.95,2.9,7.93,4.96,1.98,2.06,3.38,4.48,4.19,7.27.8,2.79,1.21,5.73,1.21,8.81h2.2v-56.42h-2.2c0,3.08-.41,5.98-1.21,8.7-.81,2.72-2.2,5.14-4.19,7.27-1.98,2.13-4.63,3.82-7.93,5.07-3.3,1.25-7.53,1.87-12.67,1.87h-25.55v-67.15h29.74c6.31,0,11.57.85,15.75,2.53,4.19,1.69,7.6,4.07,10.24,7.16,2.64,3.08,4.74,6.72,6.28,10.9,1.54,4.19,2.83,8.78,3.86,13.77h2.2l-1.1-44.97h-67.16Z"/>
  <rect class="cls-17" x="1033.13" y="100.13" width="368.5" height="368.5" rx="53.72" ry="53.72"/>
  <g>
    <path class="cls-7" d="M1156,306.83c-.46-1.01-.82-2.15-1.1-3.42-.28-1.26-.42-2.52-.42-3.78v-69.06h-1.26c-1.33.63-2.84,1.17-4.52,1.63-1.68.46-3.47.86-5.36,1.21-1.89.35-3.82.65-5.78.89-1.96.25-3.92.44-5.89.58v1.05c.63,0,1.24.3,1.84.89.59.6,1.12,1.37,1.58,2.31.45.95.82,2.03,1.1,3.26.28,1.23.42,2.51.42,3.84v53.82c0,1.19-.14,2.4-.42,3.63-.28,1.23-.65,2.31-1.1,3.26-.46.95-.98,1.72-1.58,2.31s-1.21.89-1.84.89v1.05h27.75v-1.05c-.63,0-1.24-.3-1.84-.89-.6-.59-1.12-1.4-1.58-2.42Z"/>
    <path class="cls-6" d="M1219.96,307.36c-.98-1.86-1.47-5.24-1.47-10.14v-40.57h-1.26c-1.33.63-2.84,1.17-4.52,1.63-1.68.46-3.47.86-5.36,1.21-1.89.35-3.82.65-5.78.89-1.96.25-3.92.44-5.89.58v1.05c.63,0,1.24.3,1.84.89.59.6,1.12,1.37,1.58,2.31.46.95.82,2.03,1.1,3.26.28,1.23.42,2.51.42,3.84v24.7c0,1.26-.3,2.4-.89,3.42-.6,1.02-1.38,1.91-2.37,2.68-.98.77-2.09,1.37-3.31,1.79-1.23.42-2.47.63-3.73.63-3.01,0-5.29-1.1-6.83-3.31-1.54-2.21-2.31-4.78-2.31-7.73v-37.84h-1.26c-1.33.63-2.84,1.17-4.52,1.63-1.68.46-3.47.86-5.36,1.21-1.89.35-3.82.65-5.78.89-1.96.25-3.92.44-5.89.58v1.05c.63,0,1.24.3,1.84.89.59.6,1.12,1.37,1.58,2.31.45.95.82,2.03,1.1,3.26.28,1.23.42,2.51.42,3.84v21.34c0,6.1,1.58,10.72,4.73,13.87s7.46,4.73,12.93,4.73c2.45,0,4.69-.25,6.73-.74,2.03-.49,3.89-1.16,5.57-2s3.14-1.79,4.36-2.84c1.23-1.05,2.22-2.1,3-3.15v7.67h22.81v-1.05c-1.33,0-2.49-.93-3.47-2.79Z"/>
    <path class="cls-3" d="M1273.78,289.96c-.56,2.73-1.58,4.85-3.05,6.36-1.47,1.51-3.05,2.65-4.73,3.42-1.68.77-3.33,1.25-4.94,1.42-1.61.18-2.91.26-3.89.26-4.77,0-8.64-1.79-11.62-5.36-2.98-3.57-4.64-8.72-4.99-15.45h34.05v-2.21c0-3.22-.67-6.22-2-8.99-1.33-2.77-3.15-5.19-5.46-7.25-2.31-2.07-5.03-3.68-8.15-4.83-3.12-1.16-6.46-1.73-10.04-1.73-3.92,0-7.51.68-10.77,2.05-3.26,1.37-6.06,3.28-8.41,5.73-2.35,2.45-4.17,5.4-5.47,8.83-1.3,3.43-1.94,7.25-1.94,11.46s.68,8.06,2.05,11.56c1.37,3.5,3.28,6.52,5.73,9.04,2.45,2.52,5.38,4.49,8.78,5.89,3.4,1.4,7.13,2.1,11.19,2.1,3.36,0,6.48-.49,9.36-1.47,2.87-.98,5.39-2.42,7.57-4.31,2.17-1.89,3.94-4.22,5.31-6.99,1.37-2.77,2.19-5.94,2.47-9.51h-1.05ZM1241.3,270.47c.42-2.42,1.02-4.54,1.79-6.36.77-1.82,1.68-3.26,2.73-4.31,1.05-1.05,2.24-1.58,3.57-1.58,2.24,0,4.06,1.77,5.47,5.31,1.4,3.54,2.21,8.39,2.42,14.56h-16.82c.14-2.66.42-5.2.84-7.62Z"/>
    <path class="cls-4" d="M1334.9,306.83c-.46-1.01-.82-2.15-1.1-3.42-.28-1.26-.42-2.52-.42-3.78v-23.96c0-6.52-1.52-11.49-4.57-14.93-3.05-3.43-7.45-5.15-13.19-5.15-3.99,0-7.66.88-10.98,2.63-3.33,1.75-6.01,3.85-8.04,6.31v-7.88h-1.26c-1.33.63-2.84,1.17-4.52,1.63-1.68.46-3.47.86-5.36,1.21-1.89.35-3.82.65-5.78.89-1.96.25-3.92.44-5.89.58v1.05c.63,0,1.24.3,1.84.89.59.6,1.12,1.37,1.58,2.31.45.95.82,2.03,1.1,3.26.28,1.23.42,2.51.42,3.84v27.75c0,1.19-.14,2.4-.42,3.63-.28,1.23-.65,2.31-1.1,3.26-.46.95-.98,1.72-1.58,2.31s-1.21.89-1.84.89v1.05h27.75v-1.05c-.63,0-1.24-.3-1.84-.89-.6-.59-1.12-1.4-1.58-2.42-.46-1.01-.82-2.15-1.1-3.42-.28-1.26-.42-2.52-.42-3.78v-30.38c1.19-1.82,2.68-3.26,4.47-4.31s3.59-1.58,5.41-1.58c6.03,0,9.04,3.15,9.04,9.46v27.22c0,1.19-.14,2.4-.42,3.63-.28,1.23-.65,2.31-1.1,3.26-.46.95-.98,1.72-1.58,2.31s-1.21.89-1.84.89v1.05h27.75v-1.05c-.63,0-1.24-.3-1.84-.89-.6-.59-1.12-1.4-1.58-2.42Z"/>
    <path class="cls-2" d="M1369.53,298.9c-.21.98-.88,1.96-2,2.94-1.12.98-2.45,1.47-3.99,1.47-3.64,0-5.47-2.66-5.47-7.99v-36.05h11.98v-2.63h-11.98v-15.56h-2.1c-.49,2.24-1.38,4.31-2.68,6.2-1.3,1.89-2.89,3.54-4.78,4.94-1.89,1.4-3.98,2.49-6.25,3.26-2.28.77-4.64,1.16-7.09,1.16h-1.58v2.63h6.62v36.05c0,5.54,1.24,9.74,3.73,12.61,2.49,2.87,6.15,4.31,10.98,4.31,2.24,0,4.33-.33,6.25-1,1.93-.67,3.59-1.59,4.99-2.79,1.4-1.19,2.49-2.61,3.26-4.26.77-1.65,1.16-3.42,1.16-5.31h-1.05Z"/>
    <path class="cls-1" d="M1095.94,234.89h0s-31.76,0-31.76,0v103.3l15.97-15.27,15.78,15.27v-51.65h.09v-11.39h12.19c2.45,0,4.47.3,6.04.89,1.58.6,2.84,1.38,3.78,2.37.95.98,1.61,2.14,2,3.47.38,1.33.58,2.73.58,4.2h1.05v-25.02h-1.05c0,1.47-.19,2.86-.58,4.15-.39,1.3-1.05,2.45-2,3.47-.95,1.02-2.21,1.82-3.78,2.42-1.58.6-3.59.89-6.04.89h-12.19v-33.95h14.19c3.01,0,5.52.4,7.52,1.21,2,.81,3.63,1.94,4.89,3.42,1.26,1.47,2.26,3.21,3,5.2.74,2,1.35,4.19,1.84,6.57h1.05l-.53-19.55h-32.05Z"/>
  </g>
  <g>
    <path class="cls-5" d="M695.03,306.83c-.46-1.01-.82-2.15-1.1-3.42-.28-1.26-.42-2.52-.42-3.78v-69.06h-1.26c-1.33.63-2.84,1.17-4.52,1.63-1.68.46-3.47.86-5.36,1.21-1.89.35-3.82.65-5.78.89-1.96.25-3.92.44-5.89.58v1.05c.63,0,1.24.3,1.84.89.59.6,1.12,1.37,1.58,2.31.45.95.82,2.03,1.1,3.26.28,1.23.42,2.51.42,3.84v53.82c0,1.19-.14,2.4-.42,3.63-.28,1.23-.65,2.31-1.1,3.26-.46.95-.98,1.72-1.58,2.31s-1.21.89-1.84.89v1.05h27.75v-1.05c-.63,0-1.24-.3-1.84-.89-.6-.59-1.12-1.4-1.58-2.42Z"/>
    <path class="cls-11" d="M758.99,307.36c-.98-1.86-1.47-5.24-1.47-10.14v-40.57h-1.26c-1.33.63-2.84,1.17-4.52,1.63-1.68.46-3.47.86-5.36,1.21-1.89.35-3.82.65-5.78.89-1.96.25-3.92.44-5.89.58v1.05c.63,0,1.24.3,1.84.89.59.6,1.12,1.37,1.58,2.31.46.95.82,2.03,1.1,3.26.28,1.23.42,2.51.42,3.84v24.7c0,1.26-.3,2.4-.89,3.42-.6,1.02-1.38,1.91-2.37,2.68-.98.77-2.09,1.37-3.31,1.79-1.23.42-2.47.63-3.73.63-3.01,0-5.29-1.1-6.83-3.31-1.54-2.21-2.31-4.78-2.31-7.73v-37.84h-1.26c-1.33.63-2.84,1.17-4.52,1.63-1.68.46-3.47.86-5.36,1.21-1.89.35-3.82.65-5.78.89-1.96.25-3.92.44-5.89.58v1.05c.63,0,1.24.3,1.84.89.59.6,1.12,1.37,1.58,2.31.45.95.82,2.03,1.1,3.26.28,1.23.42,2.51.42,3.84v21.34c0,6.1,1.58,10.72,4.73,13.87s7.46,4.73,12.93,4.73c2.45,0,4.69-.25,6.73-.74,2.03-.49,3.89-1.16,5.57-2s3.14-1.79,4.36-2.84c1.23-1.05,2.22-2.1,3-3.15v7.67h22.81v-1.05c-1.33,0-2.49-.93-3.47-2.79Z"/>
    <path class="cls-12" d="M812.81,289.96c-.56,2.73-1.58,4.85-3.05,6.36-1.47,1.51-3.05,2.65-4.73,3.42-1.68.77-3.33,1.25-4.94,1.42-1.61.18-2.91.26-3.89.26-4.77,0-8.64-1.79-11.62-5.36-2.98-3.57-4.64-8.72-4.99-15.45h34.05v-2.21c0-3.22-.67-6.22-2-8.99-1.33-2.77-3.15-5.19-5.46-7.25-2.31-2.07-5.03-3.68-8.15-4.83-3.12-1.16-6.46-1.73-10.04-1.73-3.92,0-7.51.68-10.77,2.05-3.26,1.37-6.06,3.28-8.41,5.73-2.35,2.45-4.17,5.4-5.47,8.83-1.3,3.43-1.94,7.25-1.94,11.46s.68,8.06,2.05,11.56c1.37,3.5,3.28,6.52,5.73,9.04,2.45,2.52,5.38,4.49,8.78,5.89,3.4,1.4,7.13,2.1,11.19,2.1,3.36,0,6.48-.49,9.36-1.47,2.87-.98,5.39-2.42,7.57-4.31,2.17-1.89,3.94-4.22,5.31-6.99,1.37-2.77,2.19-5.94,2.47-9.51h-1.05ZM780.33,270.47c.42-2.42,1.02-4.54,1.79-6.36.77-1.82,1.68-3.26,2.73-4.31,1.05-1.05,2.24-1.58,3.57-1.58,2.24,0,4.06,1.77,5.47,5.31,1.4,3.54,2.21,8.39,2.42,14.56h-16.82c.14-2.66.42-5.2.84-7.62Z"/>
    <path class="cls-13" d="M873.93,306.83c-.46-1.01-.82-2.15-1.1-3.42-.28-1.26-.42-2.52-.42-3.78v-23.96c0-6.52-1.52-11.49-4.57-14.93-3.05-3.43-7.45-5.15-13.19-5.15-3.99,0-7.66.88-10.98,2.63-3.33,1.75-6.01,3.85-8.04,6.31v-7.88h-1.26c-1.33.63-2.84,1.17-4.52,1.63-1.68.46-3.47.86-5.36,1.21-1.89.35-3.82.65-5.78.89-1.96.25-3.92.44-5.89.58v1.05c.63,0,1.24.3,1.84.89.59.6,1.12,1.37,1.58,2.31.45.95.82,2.03,1.1,3.26.28,1.23.42,2.51.42,3.84v27.75c0,1.19-.14,2.4-.42,3.63-.28,1.23-.65,2.31-1.1,3.26-.46.95-.98,1.72-1.58,2.31s-1.21.89-1.84.89v1.05h27.75v-1.05c-.63,0-1.24-.3-1.84-.89-.6-.59-1.12-1.4-1.58-2.42-.46-1.01-.82-2.15-1.1-3.42-.28-1.26-.42-2.52-.42-3.78v-30.38c1.19-1.82,2.68-3.26,4.47-4.31s3.59-1.58,5.41-1.58c6.03,0,9.04,3.15,9.04,9.46v27.22c0,1.19-.14,2.4-.42,3.63-.28,1.23-.65,2.31-1.1,3.26-.46.95-.98,1.72-1.58,2.31s-1.21.89-1.84.89v1.05h27.75v-1.05c-.63,0-1.24-.3-1.84-.89-.6-.59-1.12-1.4-1.58-2.42Z"/>
    <path class="cls-14" d="M908.56,298.9c-.21.98-.88,1.96-2,2.94-1.12.98-2.45,1.47-3.99,1.47-3.64,0-5.47-2.66-5.47-7.99v-36.05h11.98v-2.63h-11.98v-15.56h-2.1c-.49,2.24-1.38,4.31-2.68,6.2-1.3,1.89-2.89,3.54-4.78,4.94-1.89,1.4-3.98,2.49-6.25,3.26-2.28.77-4.64,1.16-7.09,1.16h-1.58v2.63h6.62v36.05c0,5.54,1.24,9.74,3.73,12.61,2.49,2.87,6.15,4.31,10.98,4.31,2.24,0,4.33-.33,6.25-1,1.93-.67,3.59-1.59,4.99-2.79,1.4-1.19,2.49-2.61,3.26-4.26.77-1.65,1.16-3.42,1.16-5.31h-1.05Z"/>
    <path class="cls-15" d="M634.97,234.89h0s-31.76,0-31.76,0v103.3l15.97-15.27,15.78,15.27v-51.65h.09v-11.39h12.19c2.45,0,4.47.3,6.04.89,1.58.6,2.84,1.38,3.78,2.37.95.98,1.61,2.14,2,3.47.38,1.33.58,2.73.58,4.2h1.05v-25.02h-1.05c0,1.47-.19,2.86-.58,4.15-.39,1.3-1.05,2.45-2,3.47-.95,1.02-2.21,1.82-3.78,2.42-1.58.6-3.59.89-6.04.89h-12.19v-33.95h14.19c3.01,0,5.52.4,7.52,1.21,2,.81,3.63,1.94,4.89,3.42,1.26,1.47,2.26,3.21,3,5.2.74,2,1.35,4.19,1.84,6.57h1.05l-.53-19.55h-32.05Z"/>
  </g>
  <g>
    <path d="M247.22,306.83c-.46-1.01-.82-2.15-1.1-3.42-.28-1.26-.42-2.52-.42-3.78v-69.06h-1.26c-1.33.63-2.84,1.17-4.52,1.63-1.68.46-3.47.86-5.36,1.21-1.89.35-3.82.65-5.78.89-1.96.25-3.92.44-5.89.58v1.05c.63,0,1.24.3,1.84.89.59.6,1.12,1.37,1.58,2.31.45.95.82,2.03,1.1,3.26.28,1.23.42,2.51.42,3.84v53.82c0,1.19-.14,2.4-.42,3.63-.28,1.23-.65,2.31-1.1,3.26-.46.95-.98,1.72-1.58,2.31s-1.21.89-1.84.89v1.05h27.75v-1.05c-.63,0-1.24-.3-1.84-.89-.6-.59-1.12-1.4-1.58-2.42Z"/>
    <path d="M311.18,307.36c-.98-1.86-1.47-5.24-1.47-10.14v-40.57h-1.26c-1.33.63-2.84,1.17-4.52,1.63-1.68.46-3.47.86-5.36,1.21-1.89.35-3.82.65-5.78.89-1.96.25-3.92.44-5.89.58v1.05c.63,0,1.24.3,1.84.89.59.6,1.12,1.37,1.58,2.31.46.95.82,2.03,1.1,3.26.28,1.23.42,2.51.42,3.84v24.7c0,1.26-.3,2.4-.89,3.42-.6,1.02-1.38,1.91-2.37,2.68-.98.77-2.09,1.37-3.31,1.79-1.23.42-2.47.63-3.73.63-3.01,0-5.29-1.1-6.83-3.31-1.54-2.21-2.31-4.78-2.31-7.73v-37.84h-1.26c-1.33.63-2.84,1.17-4.52,1.63-1.68.46-3.47.86-5.36,1.21-1.89.35-3.82.65-5.78.89-1.96.25-3.92.44-5.89.58v1.05c.63,0,1.24.3,1.84.89.59.6,1.12,1.37,1.58,2.31.45.95.82,2.03,1.1,3.26.28,1.23.42,2.51.42,3.84v21.34c0,6.1,1.58,10.72,4.73,13.87s7.46,4.73,12.93,4.73c2.45,0,4.69-.25,6.73-.74,2.03-.49,3.89-1.16,5.57-2s3.14-1.79,4.36-2.84c1.23-1.05,2.22-2.1,3-3.15v7.67h22.81v-1.05c-1.33,0-2.49-.93-3.47-2.79Z"/>
    <path d="M364.99,289.96c-.56,2.73-1.58,4.85-3.05,6.36-1.47,1.51-3.05,2.65-4.73,3.42-1.68.77-3.33,1.25-4.94,1.42-1.61.18-2.91.26-3.89.26-4.77,0-8.64-1.79-11.62-5.36-2.98-3.57-4.64-8.72-4.99-15.45h34.05v-2.21c0-3.22-.67-6.22-2-8.99-1.33-2.77-3.15-5.19-5.46-7.25-2.31-2.07-5.03-3.68-8.15-4.83-3.12-1.16-6.46-1.73-10.04-1.73-3.92,0-7.51.68-10.77,2.05-3.26,1.37-6.06,3.28-8.41,5.73-2.35,2.45-4.17,5.4-5.47,8.83-1.3,3.43-1.94,7.25-1.94,11.46s.68,8.06,2.05,11.56c1.37,3.5,3.28,6.52,5.73,9.04,2.45,2.52,5.38,4.49,8.78,5.89,3.4,1.4,7.13,2.1,11.19,2.1,3.36,0,6.48-.49,9.36-1.47,2.87-.98,5.39-2.42,7.57-4.31,2.17-1.89,3.94-4.22,5.31-6.99,1.37-2.77,2.19-5.94,2.47-9.51h-1.05ZM332.51,270.47c.42-2.42,1.02-4.54,1.79-6.36.77-1.82,1.68-3.26,2.73-4.31,1.05-1.05,2.24-1.58,3.57-1.58,2.24,0,4.06,1.77,5.47,5.31,1.4,3.54,2.21,8.39,2.42,14.56h-16.82c.14-2.66.42-5.2.84-7.62Z"/>
    <path d="M426.11,306.83c-.46-1.01-.82-2.15-1.1-3.42-.28-1.26-.42-2.52-.42-3.78v-23.96c0-6.52-1.52-11.49-4.57-14.93-3.05-3.43-7.45-5.15-13.19-5.15-3.99,0-7.66.88-10.98,2.63-3.33,1.75-6.01,3.85-8.04,6.31v-7.88h-1.26c-1.33.63-2.84,1.17-4.52,1.63-1.68.46-3.47.86-5.36,1.21-1.89.35-3.82.65-5.78.89-1.96.25-3.92.44-5.89.58v1.05c.63,0,1.24.3,1.84.89.59.6,1.12,1.37,1.58,2.31.45.95.82,2.03,1.1,3.26.28,1.23.42,2.51.42,3.84v27.75c0,1.19-.14,2.4-.42,3.63-.28,1.23-.65,2.31-1.1,3.26-.46.95-.98,1.72-1.58,2.31s-1.21.89-1.84.89v1.05h27.75v-1.05c-.63,0-1.24-.3-1.84-.89-.6-.59-1.12-1.4-1.58-2.42-.46-1.01-.82-2.15-1.1-3.42-.28-1.26-.42-2.52-.42-3.78v-30.38c1.19-1.82,2.68-3.26,4.47-4.31s3.59-1.58,5.41-1.58c6.03,0,9.04,3.15,9.04,9.46v27.22c0,1.19-.14,2.4-.42,3.63-.28,1.23-.65,2.31-1.1,3.26-.46.95-.98,1.72-1.58,2.31s-1.21.89-1.84.89v1.05h27.75v-1.05c-.63,0-1.24-.3-1.84-.89-.6-.59-1.12-1.4-1.58-2.42Z"/>
    <path d="M460.75,298.9c-.21.98-.88,1.96-2,2.94-1.12.98-2.45,1.47-3.99,1.47-3.64,0-5.47-2.66-5.47-7.99v-36.05h11.98v-2.63h-11.98v-15.56h-2.1c-.49,2.24-1.38,4.31-2.68,6.2-1.3,1.89-2.89,3.54-4.78,4.94-1.89,1.4-3.98,2.49-6.25,3.26-2.28.77-4.64,1.16-7.09,1.16h-1.58v2.63h6.62v36.05c0,5.54,1.24,9.74,3.73,12.61,2.49,2.87,6.15,4.31,10.98,4.31,2.24,0,4.33-.33,6.25-1,1.93-.67,3.59-1.59,4.99-2.79,1.4-1.19,2.49-2.61,3.26-4.26.77-1.65,1.16-3.42,1.16-5.31h-1.05Z"/>
    <path d="M187.16,234.89h0s-31.76,0-31.76,0v103.3l15.97-15.27,15.78,15.27v-51.65h.09v-11.39h12.19c2.45,0,4.47.3,6.04.89,1.58.6,2.84,1.38,3.78,2.37.95.98,1.61,2.14,2,3.47.38,1.33.58,2.73.58,4.2h1.05v-25.02h-1.05c0,1.47-.19,2.86-.58,4.15-.39,1.3-1.05,2.45-2,3.47-.95,1.02-2.21,1.82-3.78,2.42-1.58.6-3.59.89-6.04.89h-12.19v-33.95h14.19c3.01,0,5.52.4,7.52,1.21,2,.81,3.63,1.94,4.89,3.42,1.26,1.47,2.26,3.21,3,5.2.74,2,1.35,4.19,1.84,6.57h1.05l-.53-19.55h-32.05Z"/>
  </g>
  <rect class="cls-16" x="1033.13" y="931.29" width="368.5" height="368.5" rx="53.72" ry="53.72"/>
  <path class="cls-10" d="M1216.53,1007.3h0s-66.55,0-66.55,0v216.47l33.47-32,33.08,32v-108.24h.2v-23.88h25.55c5.14,0,9.36.63,12.67,1.87,3.3,1.25,5.95,2.9,7.93,4.96,1.98,2.06,3.38,4.48,4.19,7.27.8,2.79,1.21,5.73,1.21,8.81h2.2v-52.42h-2.2c0,3.08-.41,5.98-1.21,8.7-.81,2.72-2.2,5.14-4.19,7.27-1.98,2.13-4.63,3.82-7.93,5.07-3.3,1.25-7.53,1.87-12.67,1.87h-25.55v-71.15h29.74c6.31,0,11.57.85,15.75,2.53,4.19,1.69,7.6,4.07,10.24,7.16,2.64,3.08,4.74,6.72,6.28,10.9,1.54,4.19,2.83,8.78,3.86,13.77h2.2l-1.1-40.97h-67.16Z"/>
  <path d="M669.84,1004.07h0s-66.55,0-66.55,0v216.47l33.47-32,33.08,32v-108.24h.2v-23.88h25.55c5.14,0,9.36.63,12.67,1.87,3.3,1.25,5.95,2.9,7.93,4.96,1.98,2.06,3.38,4.48,4.19,7.27.8,2.79,1.21,5.73,1.21,8.81h2.2v-52.42h-2.2c0,3.08-.41,5.98-1.21,8.7-.81,2.72-2.2,5.14-4.19,7.27-1.98,2.13-4.63,3.82-7.93,5.07-3.3,1.25-7.53,1.87-12.67,1.87h-25.55v-71.15h29.74c6.31,0,11.57.85,15.75,2.53,4.19,1.69,7.6,4.07,10.24,7.16,2.64,3.08,4.74,6.72,6.28,10.9,1.54,4.19,2.83,8.78,3.86,13.77h2.2l-1.1-40.97h-67.16Z"/>
  <rect y="468.63" width="528.83" height="883.83"/>
  <g>
    <path class="cls-10" d="M247.22,722.41c-.46-1.01-.82-2.15-1.1-3.42-.28-1.26-.42-2.52-.42-3.78v-69.06h-1.26c-1.33.63-2.84,1.17-4.52,1.63-1.68.46-3.47.86-5.36,1.21-1.89.35-3.82.65-5.78.89-1.96.25-3.92.44-5.89.58v1.05c.63,0,1.24.3,1.84.89.59.6,1.12,1.37,1.58,2.31.45.95.82,2.03,1.1,3.26.28,1.23.42,2.51.42,3.84v53.82c0,1.19-.14,2.4-.42,3.63-.28,1.23-.65,2.31-1.1,3.26-.46.95-.98,1.72-1.58,2.31s-1.21.89-1.84.89v1.05h27.75v-1.05c-.63,0-1.24-.3-1.84-.89-.6-.59-1.12-1.4-1.58-2.42Z"/>
    <path class="cls-10" d="M311.18,722.94c-.98-1.86-1.47-5.24-1.47-10.14v-40.57h-1.26c-1.33.63-2.84,1.17-4.52,1.63-1.68.46-3.47.86-5.36,1.21-1.89.35-3.82.65-5.78.89-1.96.25-3.92.44-5.89.58v1.05c.63,0,1.24.3,1.84.89.59.6,1.12,1.37,1.58,2.31.46.95.82,2.03,1.1,3.26.28,1.23.42,2.51.42,3.84v24.7c0,1.26-.3,2.4-.89,3.42-.6,1.02-1.38,1.91-2.37,2.68-.98.77-2.09,1.37-3.31,1.79-1.23.42-2.47.63-3.73.63-3.01,0-5.29-1.1-6.83-3.31-1.54-2.21-2.31-4.78-2.31-7.73v-37.84h-1.26c-1.33.63-2.84,1.17-4.52,1.63-1.68.46-3.47.86-5.36,1.21-1.89.35-3.82.65-5.78.89-1.96.25-3.92.44-5.89.58v1.05c.63,0,1.24.3,1.84.89.59.6,1.12,1.37,1.58,2.31.45.95.82,2.03,1.1,3.26.28,1.23.42,2.51.42,3.84v21.34c0,6.1,1.58,10.72,4.73,13.87s7.46,4.73,12.93,4.73c2.45,0,4.69-.25,6.73-.74,2.03-.49,3.89-1.16,5.57-2s3.14-1.79,4.36-2.84c1.23-1.05,2.22-2.1,3-3.15v7.67h22.81v-1.05c-1.33,0-2.49-.93-3.47-2.79Z"/>
    <path class="cls-10" d="M364.99,705.54c-.56,2.73-1.58,4.85-3.05,6.36-1.47,1.51-3.05,2.65-4.73,3.42-1.68.77-3.33,1.25-4.94,1.42-1.61.18-2.91.26-3.89.26-4.77,0-8.64-1.79-11.62-5.36-2.98-3.57-4.64-8.72-4.99-15.45h34.05v-2.21c0-3.22-.67-6.22-2-8.99-1.33-2.77-3.15-5.19-5.46-7.25-2.31-2.07-5.03-3.68-8.15-4.83-3.12-1.16-6.46-1.73-10.04-1.73-3.92,0-7.51.68-10.77,2.05-3.26,1.37-6.06,3.28-8.41,5.73-2.35,2.45-4.17,5.4-5.47,8.83-1.3,3.43-1.94,7.25-1.94,11.46s.68,8.06,2.05,11.56c1.37,3.5,3.28,6.52,5.73,9.04,2.45,2.52,5.38,4.49,8.78,5.89,3.4,1.4,7.13,2.1,11.19,2.1,3.36,0,6.48-.49,9.36-1.47,2.87-.98,5.39-2.42,7.57-4.31,2.17-1.89,3.94-4.22,5.31-6.99,1.37-2.77,2.19-5.94,2.47-9.51h-1.05ZM332.51,686.05c.42-2.42,1.02-4.54,1.79-6.36.77-1.82,1.68-3.26,2.73-4.31,1.05-1.05,2.24-1.58,3.57-1.58,2.24,0,4.06,1.77,5.47,5.31,1.4,3.54,2.21,8.39,2.42,14.56h-16.82c.14-2.66.42-5.2.84-7.62Z"/>
    <path class="cls-10" d="M426.11,722.41c-.46-1.01-.82-2.15-1.1-3.42-.28-1.26-.42-2.52-.42-3.78v-23.96c0-6.52-1.52-11.49-4.57-14.93-3.05-3.43-7.45-5.15-13.19-5.15-3.99,0-7.66.88-10.98,2.63-3.33,1.75-6.01,3.85-8.04,6.31v-7.88h-1.26c-1.33.63-2.84,1.17-4.52,1.63-1.68.46-3.47.86-5.36,1.21-1.89.35-3.82.65-5.78.89-1.96.25-3.92.44-5.89.58v1.05c.63,0,1.24.3,1.84.89.59.6,1.12,1.37,1.58,2.31.45.95.82,2.03,1.1,3.26.28,1.23.42,2.51.42,3.84v27.75c0,1.19-.14,2.4-.42,3.63-.28,1.23-.65,2.31-1.1,3.26-.46.95-.98,1.72-1.58,2.31s-1.21.89-1.84.89v1.05h27.75v-1.05c-.63,0-1.24-.3-1.84-.89-.6-.59-1.12-1.4-1.58-2.42-.46-1.01-.82-2.15-1.1-3.42-.28-1.26-.42-2.52-.42-3.78v-30.38c1.19-1.82,2.68-3.26,4.47-4.31s3.59-1.58,5.41-1.58c6.03,0,9.04,3.15,9.04,9.46v27.22c0,1.19-.14,2.4-.42,3.63-.28,1.23-.65,2.31-1.1,3.26-.46.95-.98,1.72-1.58,2.31s-1.21.89-1.84.89v1.05h27.75v-1.05c-.63,0-1.24-.3-1.84-.89-.6-.59-1.12-1.4-1.58-2.42Z"/>
    <path class="cls-10" d="M460.75,714.48c-.21.98-.88,1.96-2,2.94-1.12.98-2.45,1.47-3.99,1.47-3.64,0-5.47-2.66-5.47-7.99v-36.05h11.98v-2.63h-11.98v-15.56h-2.1c-.49,2.24-1.38,4.31-2.68,6.2-1.3,1.89-2.89,3.54-4.78,4.94-1.89,1.4-3.98,2.49-6.25,3.26-2.28.77-4.64,1.16-7.09,1.16h-1.58v2.63h6.62v36.05c0,5.54,1.24,9.74,3.73,12.61,2.49,2.87,6.15,4.31,10.98,4.31,2.24,0,4.33-.33,6.25-1,1.93-.67,3.59-1.59,4.99-2.79,1.4-1.19,2.49-2.61,3.26-4.26.77-1.65,1.16-3.42,1.16-5.31h-1.05Z"/>
    <path class="cls-10" d="M187.16,650.47h0s-31.76,0-31.76,0v103.3l15.97-15.27,15.78,15.27v-51.65h.09v-11.39h12.19c2.45,0,4.47.3,6.04.89,1.58.6,2.84,1.38,3.78,2.37.95.98,1.61,2.14,2,3.47.38,1.33.58,2.73.58,4.2h1.05v-25.02h-1.05c0,1.47-.19,2.86-.58,4.15-.39,1.3-1.05,2.45-2,3.47-.95,1.02-2.21,1.82-3.78,2.42-1.58.6-3.59.89-6.04.89h-12.19v-33.95h14.19c3.01,0,5.52.4,7.52,1.21,2,.81,3.63,1.94,4.89,3.42,1.26,1.47,2.26,3.21,3,5.2.74,2,1.35,4.19,1.84,6.57h1.05l-.53-19.55h-32.05Z"/>
  </g>
  <path class="cls-10" d="M249.78,1004.07h0s-66.55,0-66.55,0v216.47l33.47-32,33.08,32v-108.24h.2v-23.88h25.55c5.14,0,9.36.63,12.67,1.87,3.3,1.25,5.95,2.9,7.93,4.96,1.98,2.06,3.38,4.48,4.19,7.27.8,2.79,1.21,5.73,1.21,8.81h2.2v-52.42h-2.2c0,3.08-.41,5.98-1.21,8.7-.81,2.72-2.2,5.14-4.19,7.27-1.98,2.13-4.63,3.82-7.93,5.07-3.3,1.25-7.53,1.87-12.67,1.87h-25.55v-71.15h29.74c6.31,0,11.57.85,15.75,2.53,4.19,1.69,7.6,4.07,10.24,7.16,2.64,3.08,4.74,6.72,6.28,10.9,1.54,4.19,2.83,8.78,3.86,13.77h2.2l-1.1-40.97h-67.16Z"/>
</svg>