<?xml version="1.0" encoding="UTF-8"?>
<svg id="Layer_2" data-name="Layer 2" xmlns="http://www.w3.org/2000/svg" xmlns:xlink="http://www.w3.org/1999/xlink" viewBox="0 0 306.39 107.61">
  <defs>
    <style>
      .cls-1 {
        fill: url(#linear-gradient-5);
      }

      .cls-2 {
        fill: url(#linear-gradient-6);
      }

      .cls-3 {
        fill: url(#linear-gradient-4);
      }

      .cls-4 {
        fill: url(#linear-gradient-3);
      }

      .cls-5 {
        fill: url(#linear-gradient-2);
      }

      .cls-6 {
        fill: url(#linear-gradient);
      }
    </style>
    <linearGradient id="linear-gradient" x1="81.36" y1="4.1" x2="81.36" y2="89.12" gradientUnits="userSpaceOnUse">
      <stop offset=".21" stop-color="#ff4412"/>
      <stop offset=".56" stop-color="#ff5017"/>
      <stop offset=".86" stop-color="#fb7b26"/>
    </linearGradient>
    <linearGradient id="linear-gradient-2" x1="126.71" y1="2.98" x2="126.71" y2="90.95" xlink:href="#linear-gradient"/>
    <linearGradient id="linear-gradient-3" x1="184.42" y1="2.97" x2="184.42" y2="90.68" xlink:href="#linear-gradient"/>
    <linearGradient id="linear-gradient-4" x1="241.86" y1="2.14" x2="241.86" y2="89.64" xlink:href="#linear-gradient"/>
    <linearGradient id="linear-gradient-5" x1="287.9" y1=".77" x2="287.9" y2="91.52" xlink:href="#linear-gradient"/>
    <linearGradient id="linear-gradient-6" x1="32.16" y1="4.31" x2="32.16" y2="87.95" xlink:href="#linear-gradient"/>
  </defs>
  <g id="Layer_1-2" data-name="Layer 1">
    <g>
      <path class="cls-6" d="M91.81,76.26c-.46-1.01-.82-2.15-1.1-3.42-.28-1.26-.42-2.52-.42-3.78V0h-1.26c-1.33.63-2.84,1.17-4.52,1.63-1.68.46-3.47.86-5.36,1.21-1.89.35-3.82.65-5.78.89-1.96.25-3.92.44-5.89.58v1.05c.63,0,1.24.3,1.84.89.59.6,1.12,1.37,1.58,2.31.45.95.82,2.03,1.1,3.26.28,1.23.42,2.51.42,3.84v53.82c0,1.19-.14,2.4-.42,3.63-.28,1.23-.65,2.31-1.1,3.26-.46.95-.98,1.72-1.58,2.31s-1.21.89-1.84.89v1.05h27.75v-1.05c-.63,0-1.24-.3-1.84-.89-.6-.59-1.12-1.4-1.58-2.42Z"/>
      <path class="cls-5" d="M155.77,76.78c-.98-1.86-1.47-5.24-1.47-10.14V26.07h-1.26c-1.33.63-2.84,1.17-4.52,1.63-1.68.46-3.47.86-5.36,1.21-1.89.35-3.82.65-5.78.89-1.96.25-3.92.44-5.89.58v1.05c.63,0,1.24.3,1.84.89.59.6,1.12,1.37,1.58,2.31.46.95.82,2.03,1.1,3.26.28,1.23.42,2.51.42,3.84v24.7c0,1.26-.3,2.4-.89,3.42-.6,1.02-1.38,1.91-2.37,2.68-.98.77-2.09,1.37-3.31,1.79-1.23.42-2.47.63-3.73.63-3.01,0-5.29-1.1-6.83-3.31-1.54-2.21-2.31-4.78-2.31-7.73V26.07h-1.26c-1.33.63-2.84,1.17-4.52,1.63-1.68.46-3.47.86-5.36,1.21-1.89.35-3.82.65-5.78.89-1.96.25-3.92.44-5.89.58v1.05c.63,0,1.24.3,1.84.89.59.6,1.12,1.37,1.58,2.31.45.95.82,2.03,1.1,3.26.28,1.23.42,2.51.42,3.84v21.34c0,6.1,1.58,10.72,4.73,13.87s7.46,4.73,12.93,4.73c2.45,0,4.69-.25,6.73-.74,2.03-.49,3.89-1.16,5.57-2s3.14-1.79,4.36-2.84c1.23-1.05,2.22-2.1,3-3.15v7.67h22.81v-1.05c-1.33,0-2.49-.93-3.47-2.79Z"/>
      <path class="cls-4" d="M209.59,59.39c-.56,2.73-1.58,4.85-3.05,6.36-1.47,1.51-3.05,2.65-4.73,3.42-1.68.77-3.33,1.25-4.94,1.42-1.61.18-2.91.26-3.89.26-4.77,0-8.64-1.79-11.62-5.36-2.98-3.57-4.64-8.72-4.99-15.45h34.05v-2.21c0-3.22-.67-6.22-2-8.99-1.33-2.77-3.15-5.19-5.46-7.25-2.31-2.07-5.03-3.68-8.15-4.83-3.12-1.16-6.46-1.73-10.04-1.73-3.92,0-7.51.68-10.77,2.05-3.26,1.37-6.06,3.28-8.41,5.73-2.35,2.45-4.17,5.4-5.47,8.83-1.3,3.43-1.94,7.25-1.94,11.46s.68,8.06,2.05,11.56c1.37,3.5,3.28,6.52,5.73,9.04,2.45,2.52,5.38,4.49,8.78,5.89,3.4,1.4,7.13,2.1,11.19,2.1,3.36,0,6.48-.49,9.36-1.47,2.87-.98,5.39-2.42,7.57-4.31,2.17-1.89,3.94-4.22,5.31-6.99,1.37-2.77,2.19-5.94,2.47-9.51h-1.05ZM177.11,39.89c.42-2.42,1.02-4.54,1.79-6.36.77-1.82,1.68-3.26,2.73-4.31,1.05-1.05,2.24-1.58,3.57-1.58,2.24,0,4.06,1.77,5.47,5.31,1.4,3.54,2.21,8.39,2.42,14.56h-16.82c.14-2.66.42-5.2.84-7.62Z"/>
      <path class="cls-3" d="M270.71,76.26c-.46-1.01-.82-2.15-1.1-3.42-.28-1.26-.42-2.52-.42-3.78v-23.96c0-6.52-1.52-11.49-4.57-14.93-3.05-3.43-7.45-5.15-13.19-5.15-3.99,0-7.66.88-10.98,2.63-3.33,1.75-6.01,3.85-8.04,6.31v-7.88h-1.26c-1.33.63-2.84,1.17-4.52,1.63-1.68.46-3.47.86-5.36,1.21-1.89.35-3.82.65-5.78.89-1.96.25-3.92.44-5.89.58v1.05c.63,0,1.24.3,1.84.89.59.6,1.12,1.37,1.58,2.31.45.95.82,2.03,1.1,3.26.28,1.23.42,2.51.42,3.84v27.75c0,1.19-.14,2.4-.42,3.63-.28,1.23-.65,2.31-1.1,3.26-.46.95-.98,1.72-1.58,2.31s-1.21.89-1.84.89v1.05h27.75v-1.05c-.63,0-1.24-.3-1.84-.89-.6-.59-1.12-1.4-1.58-2.42-.46-1.01-.82-2.15-1.1-3.42-.28-1.26-.42-2.52-.42-3.78v-30.38c1.19-1.82,2.68-3.26,4.47-4.31s3.59-1.58,5.41-1.58c6.03,0,9.04,3.15,9.04,9.46v27.22c0,1.19-.14,2.4-.42,3.63-.28,1.23-.65,2.31-1.1,3.26-.46.95-.98,1.72-1.58,2.31s-1.21.89-1.84.89v1.05h27.75v-1.05c-.63,0-1.24-.3-1.84-.89-.6-.59-1.12-1.4-1.58-2.42Z"/>
      <path class="cls-1" d="M305.34,68.32c-.21.98-.88,1.96-2,2.94-1.12.98-2.45,1.47-3.99,1.47-3.64,0-5.47-2.66-5.47-7.99V28.69h11.98v-2.63h-11.98v-15.56h-2.1c-.49,2.24-1.38,4.31-2.68,6.2-1.3,1.89-2.89,3.54-4.78,4.94-1.89,1.4-3.98,2.49-6.25,3.26-2.28.77-4.64,1.16-7.09,1.16h-1.58v2.63h6.62v36.05c0,5.54,1.24,9.74,3.73,12.61,2.49,2.87,6.15,4.31,10.98,4.31,2.24,0,4.33-.33,6.25-1,1.93-.67,3.59-1.59,4.99-2.79,1.4-1.19,2.49-2.61,3.26-4.26.77-1.65,1.16-3.42,1.16-5.31h-1.05Z"/>
      <path class="cls-2" d="M31.76,4.31h0s-31.76,0-31.76,0v103.3l15.97-15.27,15.78,15.27v-51.65h.09v-11.39h12.19c2.45,0,4.47.3,6.04.89,1.58.6,2.84,1.38,3.78,2.37.95.98,1.61,2.14,2,3.47.38,1.33.58,2.73.58,4.2h1.05v-25.02h-1.05c0,1.47-.19,2.86-.58,4.15-.39,1.3-1.05,2.45-2,3.47-.95,1.02-2.21,1.82-3.78,2.42-1.58.6-3.59.89-6.04.89h-12.19V7.46h14.19c3.01,0,5.52.4,7.52,1.21,2,.81,3.63,1.94,4.89,3.42,1.26,1.47,2.26,3.21,3,5.2.74,2,1.35,4.19,1.84,6.57h1.05l-.53-19.55H31.76Z"/>
    </g>
  </g>
</svg>